<?xml version="1.0" encoding="iso-8859-1"?>
<!-- Generator: Adobe Illustrator 19.0.0, SVG Export Plug-In . SVG Version: 6.00 Build 0)  -->
<svg version="1.1" id="Layer_1" xmlns="http://www.w3.org/2000/svg" xmlns:xlink="http://www.w3.org/1999/xlink" x="0px" y="0px"
	 viewBox="0 0 512 512" style="enable-background:new 0 0 512 512;" xml:space="preserve">
<circle style="fill:#273B7A;" cx="256" cy="256" r="256"/>
<path style="fill:#121149;" d="M511.172,235.389L347.367,71.583L179.574,229.279l-10.426,3.479l-26.926-26.926l-5.701,37.809
	l-0.993,0.331l-0.424,9.066l0,0l0,0l-7.766,175.163l-22.018,5.98l62.267,62.136C195.144,506.459,224.925,512,256,512
	c141.384,0,256-114.616,256-256C512,249.061,511.714,242.188,511.172,235.389z"/>
<path style="fill:#FEE187;" d="M400.563,419.487H385.09V211.259c0-4.761-3.858-8.62-8.62-8.62s-8.62,3.858-8.62,8.62v15.476H144.148
	v-15.475c0-4.761-3.858-8.62-8.62-8.62s-8.62,3.858-8.62,8.62v208.227h-15.474c-4.761,0-8.62,3.858-8.62,8.62s3.858,8.62,8.62,8.62
	h48.187c4.761,0,8.62-3.858,8.62-8.62s-3.858-8.62-8.62-8.62h-15.475V243.972H367.85v175.514h-15.475c-4.761,0-8.62,3.858-8.62,8.62
	s3.858,8.62,8.62,8.62h48.187c4.761,0,8.62-3.858,8.62-8.62S405.325,419.487,400.563,419.487z"/>
<path style="fill:#FFC61B;" d="M400.563,419.487H385.09V211.259c0-4.761-3.858-8.62-8.62-8.62s-8.62,3.858-8.62,8.62v15.476H253.7
	v17.239h114.15v175.514h-15.476c-4.761,0-8.62,3.858-8.62,8.62s3.858,8.62,8.62,8.62h48.187c4.761,0,8.62-3.858,8.62-8.62
	S405.325,419.487,400.563,419.487z"/>
<rect x="164.633" y="71.583" style="fill:#71E2EF;" width="182.734" height="327.542"/>
<rect x="253.707" y="71.582" style="fill:#38C6D9;" width="93.66" height="327.542"/>
<g>
	<path style="fill:#FFFFFF;" d="M215.273,198.034c-1.764,0-3.531-0.674-4.875-2.02c-2.694-2.693-2.694-7.059,0-9.75l71.111-71.111
		c2.691-2.694,7.061-2.694,9.75,0c2.694,2.693,2.694,7.059,0,9.75l-71.111,71.111C218.803,197.36,217.036,198.034,215.273,198.034z"
		/>
	<path style="fill:#FFFFFF;" d="M250.613,204.283c-1.764,0-3.531-0.674-4.875-2.02c-2.694-2.693-2.694-7.059,0-9.75l43.098-43.098
		c2.691-2.694,7.061-2.694,9.75,0c2.694,2.693,2.694,7.059,0,9.75l-43.098,43.098C254.143,203.609,252.376,204.283,250.613,204.283z
		"/>
	<path style="fill:#FFFFFF;" d="M207.946,163.771c-1.764,0-3.531-0.674-4.875-2.02c-2.694-2.693-2.694-7.059,0-9.75l43.098-43.098
		c2.691-2.694,7.061-2.694,9.75,0c2.694,2.693,2.694,7.059,0,9.75l-43.098,43.098C211.477,163.097,209.71,163.771,207.946,163.771z"
		/>
</g>
<g>
</g>
<g>
</g>
<g>
</g>
<g>
</g>
<g>
</g>
<g>
</g>
<g>
</g>
<g>
</g>
<g>
</g>
<g>
</g>
<g>
</g>
<g>
</g>
<g>
</g>
<g>
</g>
<g>
</g>
</svg>
