<?xml version="1.0" encoding="iso-8859-1"?>
<!-- Generator: Adobe Illustrator 19.0.0, SVG Export Plug-In . SVG Version: 6.00 Build 0)  -->
<svg version="1.1" id="Layer_1" xmlns="http://www.w3.org/2000/svg" xmlns:xlink="http://www.w3.org/1999/xlink" x="0px" y="0px"
	 viewBox="0 0 463 463" style="enable-background:new 0 0 463 463;" xml:space="preserve">
<g>
	<g>
		<g>
			<path d="M423.5,144H383v-0.5c0-17.369-14.131-31.5-31.5-31.5H351V39.5c0-4.142-3.357-7.5-7.5-7.5h-224
				c-4.143,0-7.5,3.358-7.5,7.5V112h-0.5C94.131,112,80,126.13,80,143.5v0.5H39.5C17.72,144,0,161.72,0,183.5v176
				C0,381.28,17.72,399,39.5,399h39.997c0.17,0,0.336-0.014,0.503-0.025v0.525c0,17.369,14.131,31.5,31.5,31.5h240
				c17.369,0,31.5-14.131,31.5-31.5V399h40.5c21.78,0,39.5-17.72,39.5-39.5v-176C463,161.72,445.28,144,423.5,144z M351,127h0.5
				c9.098,0,16.5,7.402,16.5,16.5v0.5h-17V127z M127,119.558c0-0.02,0.003-0.039,0.003-0.058S127,119.461,127,119.441V47h209v72.441
				c0,0.02-0.003,0.039-0.003,0.058c0,0.019,0.003,0.039,0.003,0.058V144H127V119.558z M95,143.5c0-9.098,7.402-16.5,16.5-16.5h0.5
				v17H95V143.5z M63,159h337v80.5c0,9.098-7.402,16.5-16.5,16.5h-304c-9.098,0-16.5-7.402-16.5-16.5V159z M80,320h-8.5
				c-4.687,0-8.5-3.813-8.5-8.5s3.813-8.5,8.5-8.5H80V320z M368,327.442c0,0.02-0.003,0.039-0.003,0.058
				c0,0.019,0.003,0.039,0.003,0.058V399.5c0,9.098-7.402,16.5-16.5,16.5h-240c-9.098,0-16.5-7.402-16.5-16.5V303h17v88.5
				c0,4.142,3.357,7.5,7.5,7.5h224c4.143,0,7.5-3.358,7.5-7.5V303h17V327.442z M127,384v-81h209v81H127z M448,359.5
				c0,13.509-10.99,24.5-24.5,24.5H383v-49h8.5c12.958,0,23.5-10.542,23.5-23.5S404.458,288,391.5,288h-320
				C58.542,288,48,298.542,48,311.5S58.542,335,71.5,335H80v49.025c-0.167-0.011-0.333-0.025-0.503-0.025H39.5
				C25.99,384,15,373.009,15,359.5v-176c0-13.509,10.99-24.5,24.5-24.5H48v80.5c0,17.369,14.131,31.5,31.5,31.5h304
				c17.369,0,31.5-14.131,31.5-31.5V159h8.5c13.51,0,24.5,10.991,24.5,24.5V359.5z M383,320v-17h8.5c4.687,0,8.5,3.813,8.5,8.5
				s-3.813,8.5-8.5,8.5H383z"/>
			<path d="M103.5,239c12.958,0,23.5-10.542,23.5-23.5S116.458,192,103.5,192S80,202.542,80,215.5S90.542,239,103.5,239z M103.5,207
				c4.687,0,8.5,3.813,8.5,8.5s-3.813,8.5-8.5,8.5s-8.5-3.813-8.5-8.5S98.813,207,103.5,207z"/>
			<path d="M151.5,223h16c4.143,0,7.5-3.358,7.5-7.5c0-4.142-3.357-7.5-7.5-7.5h-16c-4.143,0-7.5,3.358-7.5,7.5
				C144,219.642,147.357,223,151.5,223z"/>
			<path d="M199.5,223h16c4.143,0,7.5-3.358,7.5-7.5c0-4.142-3.357-7.5-7.5-7.5h-16c-4.143,0-7.5,3.358-7.5,7.5
				C192,219.642,195.357,223,199.5,223z"/>
			<path d="M311.5,320h-160c-4.143,0-7.5,3.358-7.5,7.5c0,4.142,3.357,7.5,7.5,7.5h160c4.143,0,7.5-3.358,7.5-7.5
				C319,323.358,315.643,320,311.5,320z"/>
			<path d="M311.5,352h-160c-4.143,0-7.5,3.358-7.5,7.5c0,4.142,3.357,7.5,7.5,7.5h160c4.143,0,7.5-3.358,7.5-7.5
				C319,355.358,315.643,352,311.5,352z"/>
		</g>
	</g>
</g>
<g>
</g>
<g>
</g>
<g>
</g>
<g>
</g>
<g>
</g>
<g>
</g>
<g>
</g>
<g>
</g>
<g>
</g>
<g>
</g>
<g>
</g>
<g>
</g>
<g>
</g>
<g>
</g>
<g>
</g>
</svg>
